<?xml version="1.0" encoding="UTF-8"?>
<svg enable-background="new 0 0 526.44 119.38" version="1.1" viewBox="0 0 526.44 119.38" xml:space="preserve" xmlns="http://www.w3.org/2000/svg"><path fill="#FFFFFF" d="m0 79.11h13.75v6.87c2.15-3.66 6.38-6.87 12.6-6.87 5.3 0 8.99 2.19 10.91 6.36 3.46-4.46 8.22-6.36 13.29-6.36 7.61 0 13.14 4.68 13.14 14.27v25.88h-13.73l-0.01-23.69c0-3.87-2-5.78-5.15-5.78-3.69 0-6.15 2.27-6.15 6.44v23.05h-13.59l-0.01-23.71c0-3.87-2-5.78-5.15-5.78-3.69 0-6.15 2.27-6.15 6.44v23.05h-13.75v-40.17z"/><path fill="#FFFFFF" d="m68.4 99.72v-0.58c0-12.29 9.61-20.05 22.05-20.05 12.37 0 21.9 7.53 21.9 19.68v0.58c0 12.44-9.61 19.9-21.97 19.9-12.38 0.01-21.98-7.16-21.98-19.53zm29.96-0.22v-0.58c0-6.44-2.68-10.03-7.91-10.03-5.15 0-7.99 3.44-7.99 9.88v0.58c0 6.59 2.69 10.18 7.99 10.18 5.15 0 7.91-3.66 7.91-10.03z"/><path fill="#FFFFFF" d="m132.18 104.84v-15.8h7.92v-8.92h-7.92v-9.7l-13.76 5.29v4.42h-4.84v8.92h4.84v17.05c0 9 5.07 13.17 14.14 13.17 3.23 0 5.84-0.66 7.61-1.1v-9.94c-1.23 0.44-2.38 0.66-3.92 0.66-2.62-0.02-4.07-1.26-4.07-4.05z"/><path fill="#FFFFFF" d="m172.7 79.11c-6.69 0-11.07 3.21-13.22 7.17v-26.19l-13.76 5.29v53.9h13.76v-22.32c0-4.9 2.77-7.24 6.84-7.24 3.99 0 5.76 2.12 5.76 6.43l-0.01 23.13h13.76v-25.75c0.01-9.81-5.37-14.42-13.13-14.42z"/><path fill="#FFFFFF" d="m190.45 99.74v-0.58c0-12.29 9.6-20.05 21.75-20.05 10.99 0 20.45 5.99 20.45 19.75v3.44h-28.28c0.39 5.05 3.46 7.98 8.38 7.98 4.53 0 6.45-1.97 6.99-4.54h12.91c-1.23 8.63-8.23 13.54-20.37 13.54-12.61 0-21.83-7.02-21.83-19.54zm28.82-4.82c-0.23-4.61-2.61-7.17-7.07-7.17-4.15 0-6.99 2.56-7.68 7.17h14.75z"/><path fill="#FFFFFF" d="m237.88 79.11h13.76l-0.01 8.12c2.53-5.71 6.76-8.2 12.99-8.12v12.22c-8.38-0.22-12.99 2.27-12.99 8.41v19.54h-13.75v-40.17z"/><path fill="#FFFFFF" d="m266.78 106.26h12.68c0.46 2.78 1.77 4.32 5.69 4.32 3.38 0 4.92-1.24 4.92-3.14 0-1.83-1.92-2.71-7.46-3.44-10.75-1.32-15.29-4.32-15.29-12.29 0-8.49 7.92-12.58 17.22-12.58 9.91 0 16.82 3.21 17.75 12.37h-12.45c-0.54-2.56-1.99-3.81-5.15-3.81-3 0-4.54 1.24-4.54 3 0 1.83 1.85 2.56 6.76 3.15 11.14 1.32 16.52 4.1 16.52 12.29 0 9.07-7.07 13.17-18.21 13.17-11.44-0.02-18.13-4.56-18.44-13.04z"/><path fill="#FFFFFF" d="m305.93 99.74v-0.58c0-12.29 9.6-20.05 22.05-20.05 12.37 0 21.9 7.53 21.9 19.68v0.58c0 12.44-9.6 19.9-21.97 19.9-12.37 0.01-21.98-7.16-21.98-19.53zm29.97-0.22v-0.58c0-6.44-2.69-10.03-7.91-10.03-5.15 0-7.99 3.44-7.99 9.88v0.58c0 6.59 2.69 10.18 7.99 10.18 5.15 0 7.91-3.66 7.91-10.03z"/><path fill="#FFFFFF" d="m354.78 79.11h13.69l0.07 7.17c2.15-3.95 6.53-7.17 13.22-7.17 7.76 0 13.14 4.6 13.14 14.41v25.75h-13.77l0.02-23.12c0-4.31-1.77-6.43-5.77-6.43-4.07 0-6.84 2.34-6.84 7.24l-0.03 22.32h-13.72v-40.17z"/><path fill="#FFFFFF" d="M505.55,8.36c-5.22,2.28-8.88,7.46-8.95,13.51l0,97.51h20.89c4.95,0,8.95-4.01,8.95-8.95V0L505.55,8.36z"/><path fill="#FFFFFF" d="m466.75 38.2c-5.22 2.28-8.88 7.46-8.95 13.51v67.67h20.89c4.94 0 8.95-4.01 8.95-8.95v-80.59l-20.89 8.36z"/><path fill="#FFFFFF" d="m427.96 68.04c-5.22 2.28-8.88 7.46-8.95 13.5v37.83h20.89c4.94 0 8.95-4.01 8.95-8.95v-50.73l-20.89 8.35z"/></svg>